<svg xmlns="http://www.w3.org/2000/svg" width="512" height="512" viewBox="0 0 512 512" version="1.1"><path d="M 331.105 141.546 C 327.587 142.309, 321.862 143.881, 318.381 145.040 C 304.212 149.755, 291.005 151.040, 251 151.597 C 223.779 151.975, 211.341 152.529, 205.624 153.615 C 187.049 157.145, 171.671 165.915, 165.497 176.500 C 162.198 182.156, 161.207 186.653, 159.490 203.778 C 158.609 212.558, 156.993 222.113, 155.616 226.673 C 151.191 241.333, 141.842 267.491, 139.898 270.651 C 136.168 276.714, 132.103 276.526, 125.813 270 C 120.606 264.598, 119.863 264.255, 118.061 266.427 C 117.135 267.542, 116.223 267.625, 113.874 266.806 C 110.417 265.601, 104.545 266.306, 102.248 268.202 C 96.782 272.712, 94.852 289.456, 98.409 301.500 C 105.179 324.418, 116.160 341.604, 126.577 345.583 C 130.563 347.105, 131.026 347.082, 135.392 345.151 L 140 343.112 140 337.303 C 140 334.108, 139.149 328.518, 138.109 324.880 C 134.871 313.557, 137.410 314.033, 143.774 325.942 C 148.067 333.974, 152.838 340.483, 155.180 341.500 C 159.192 343.242, 170.515 359.557, 177.944 374.300 C 189.262 396.760, 194.391 402.903, 207.500 409.705 C 219.534 415.948, 246.062 423.765, 264.500 426.500 C 276.999 428.354, 282.192 428.084, 304.500 424.415 C 338.725 418.788, 342.406 417.311, 359.593 402.322 C 377.302 386.877, 383.418 373.102, 389.928 334 C 391.877 322.290, 393.669 302, 392.753 302 C 392.476 302, 389.692 303.131, 386.566 304.513 C 373.686 310.209, 358.381 310.188, 346.681 304.458 C 335.981 299.217, 323.220 282.147, 321.481 270.750 C 320.807 266.331, 319.496 265.887, 318.527 269.749 L 317.837 272.498 316.454 269.999 C 314.603 266.654, 314.639 257.799, 316.523 253.291 C 318.271 249.107, 317.930 248.672, 311.500 246.893 C 306.555 245.524, 298.767 246.367, 291.612 249.044 C 284.113 251.850, 283.507 252.778, 285.031 259.130 C 286.722 266.180, 285.740 282.846, 283.211 290.022 C 276.598 308.783, 266.211 318.514, 247.837 323.160 C 222.590 329.545, 199.306 317.826, 190.894 294.500 C 189.395 290.346, 188.515 284.830, 188.032 276.571 C 187.340 264.746, 187.306 264.619, 184.167 261.998 C 181.908 260.113, 181 258.498, 181 256.368 C 181 252.386, 182.688 250.470, 187.500 248.990 C 189.700 248.314, 196.256 245.831, 202.068 243.474 C 216.621 237.572, 229.806 234.776, 243.500 234.690 C 259.127 234.592, 268.800 237.374, 276.579 244.203 C 279.984 247.193, 280.360 247.296, 283.342 246.049 C 296.010 240.754, 300.421 239.762, 309 240.279 C 313.675 240.560, 318.232 241.089, 319.126 241.455 C 320.264 241.920, 322.165 240.625, 325.472 237.133 C 333.808 228.328, 346.458 222.993, 364.731 220.578 C 374.223 219.323, 374.415 219.247, 371.500 217.901 C 369.581 217.015, 364.896 216.513, 358.500 216.508 C 348.984 216.500, 348.221 216.661, 342.744 219.827 C 334.815 224.410, 328.831 224.667, 325.311 220.575 C 323.320 218.260, 322.911 216.938, 323.349 214.236 C 324.142 209.350, 325.059 208.596, 335.303 204.405 C 343.375 201.103, 345.549 200.634, 353.076 200.571 C 360.930 200.506, 362.059 200.753, 366.479 203.500 C 372.749 207.397, 377.333 213.095, 377.333 216.990 C 377.333 219.628, 377.683 220, 380.167 220 C 381.725 220, 382.994 219.662, 382.987 219.250 C 382.980 218.838, 382.331 211.075, 381.545 202 C 379.321 176.328, 374.439 160.038, 367.126 153.895 C 362.836 150.291, 342.105 139.965, 339.389 140.079 C 338.350 140.123, 334.622 140.783, 331.105 141.546 M 227 214.035 C 214.106 216.325, 197.312 226.124, 192.595 234.109 C 191.215 236.445, 191.089 237.402, 192.015 238.518 C 193.036 239.749, 193.699 239.726, 196.849 238.350 C 204.453 235.031, 215.761 231.837, 224.612 230.508 C 232.492 229.325, 234.754 229.333, 240.643 230.565 C 252.467 233.039, 258.954 232.252, 263.750 227.759 C 266.924 224.786, 266.877 218.621, 263.665 216.516 C 259.188 213.583, 237.723 212.130, 227 214.035 M 356.500 228.657 C 343.689 231.390, 333.271 237.708, 329.478 245.043 L 328.014 247.873 334.757 245.527 C 347.449 241.110, 355.206 241.266, 365.589 246.147 C 371.509 248.930, 380 257.003, 380 259.850 C 380 262.869, 378.512 262.560, 371.570 258.103 C 368.231 255.959, 364.562 253.927, 363.414 253.587 C 361.403 252.991, 361.344 253.244, 361.750 260.735 C 362.061 266.462, 361.795 269, 360.735 270.406 C 359.410 272.164, 359.246 271.915, 358.621 267.197 C 357.945 262.101, 356 258.980, 356 262.991 C 356 265.809, 353.753 269.974, 350.689 272.836 C 348.862 274.543, 346.591 275.317, 342.269 275.709 C 336.722 276.212, 336.129 276.052, 332.830 273.155 L 329.310 270.065 330.581 274.965 C 333.340 285.602, 343.720 297.343, 353.329 300.696 C 356.900 301.942, 361.286 302.483, 367.500 302.447 C 377.715 302.386, 384.558 299.961, 391.355 293.994 C 395.231 290.590, 399.833 283, 398.020 283 C 397.372 283, 397 277.551, 397 268.059 C 397 259.841, 396.591 252.865, 396.091 252.556 C 394.915 251.830, 390 257.656, 390 259.777 C 390 260.815, 389.654 261.054, 389.039 260.439 C 387.759 259.159, 385.168 238.808, 385.582 233.283 C 385.873 229.394, 385.633 228.811, 383.389 227.958 C 379.680 226.548, 364.541 226.941, 356.500 228.657 M 390.503 237.989 C 390.142 239.632, 389.431 241.234, 388.923 241.548 C 387.781 242.253, 387.726 252.020, 388.854 253.798 C 389.420 254.690, 390.668 253.086, 392.839 248.676 C 396.446 241.348, 396.594 240.293, 394.443 237.223 C 392.341 234.221, 391.285 234.426, 390.503 237.989 M 231.500 241.631 C 224.044 242.774, 211.315 246.411, 207.590 248.462 C 202.061 251.507, 197.463 258.468, 196.222 265.672 C 194.452 275.944, 195.117 276.100, 207.045 268.209 C 223.626 257.242, 231.520 254, 241.644 254 C 247.426 254, 256.345 256.911, 260.445 260.135 C 264.266 263.141, 267.178 269.449, 266.762 273.820 L 266.412 277.500 264.743 273.871 C 262.247 268.443, 258.604 264.576, 254.052 262.524 C 251.812 261.514, 249.766 260.901, 249.505 261.162 C 249.244 261.423, 249.952 263.406, 251.079 265.568 C 253.688 270.576, 253.460 281.969, 250.695 284.733 C 249.042 286.386, 248.986 286.318, 249.577 283.365 C 249.963 281.436, 249.638 279.187, 248.721 277.437 L 247.243 274.616 246.538 277.825 C 246.151 279.590, 244.310 282.650, 242.448 284.624 L 239.061 288.215 231.133 287.854 C 224.981 287.575, 222.695 287.047, 220.932 285.497 C 218.958 283.761, 218.744 283.729, 219.299 285.250 C 219.815 286.666, 219.373 287, 216.981 287 C 214.231 287, 213.903 286.582, 212.263 281.001 C 211.293 277.702, 210.275 275.018, 210 275.036 C 209.725 275.054, 206.800 276.981, 203.500 279.319 C 196.397 284.351, 195.765 286.623, 199.034 295.362 C 203.879 308.310, 217.171 317.862, 231.636 318.790 C 255.885 320.347, 273.521 306.618, 278.067 282.647 C 279.934 272.802, 278.550 257.295, 275.371 252.443 C 273.394 249.426, 267.587 245.715, 261.500 243.580 C 256.531 241.837, 238.007 240.633, 231.500 241.631 M 330.567 252.926 C 328.517 255.191, 328.797 257.843, 331.250 259.388 C 334.873 261.669, 338.800 255.874, 335.954 252.445 C 334.324 250.480, 332.645 250.630, 330.567 252.926 M 221.752 266.841 C 218.498 268.805, 218.247 270.527, 221 272 C 224.033 273.623, 227 271.628, 227 267.965 C 227 264.621, 225.841 264.373, 221.752 266.841 M 103.667 279.667 C 101.968 281.365, 103.520 283.026, 109.976 286.418 C 114.488 288.789, 118.420 291.826, 121.111 295.017 C 123.399 297.730, 125.656 299.712, 126.127 299.422 C 127.251 298.727, 124.601 292.476, 121.406 288.288 C 117.141 282.697, 106.035 277.299, 103.667 279.667 M 325 324.272 C 322.562 329.520, 316.042 332.500, 307 332.500 C 301.017 332.500, 298.730 332.045, 295.693 330.250 C 290.914 327.426, 290 327.430, 290 330.277 C 290 338.420, 302.542 342.404, 315.791 338.469 C 322.180 336.572, 326.017 332.031, 326.754 325.494 C 327.032 323.022, 327.089 321.010, 326.880 321.022 C 326.671 321.034, 325.825 322.496, 325 324.272 M 340 347.015 C 332.582 351.109, 317.871 355.027, 302.204 357.079 C 286.786 359.100, 280.868 359.139, 262.110 357.347 C 252.726 356.451, 255.150 358.378, 266.230 360.622 C 279.361 363.282, 309.807 363.277, 318.500 360.613 C 326.890 358.042, 337.075 352.549, 341.041 348.458 C 344.884 344.493, 344.795 344.369, 340 347.015" stroke="none" fill="#deba9e" fill-rule="evenodd"/><path d="M 220 1.994 C 164.390 10.572, 117.377 33.512, 78.596 70.995 C 35.507 112.641, 9.855 163.369, 1.517 223.424 C -0.519 238.087, -0.519 273.913, 1.517 288.576 C 9.351 344.999, 32.806 393.893, 70.995 433.404 C 112.641 476.493, 163.369 502.145, 223.424 510.483 C 238.087 512.519, 273.913 512.519, 288.576 510.483 C 373.172 498.737, 443.059 450.110, 483.291 375 C 496.561 350.226, 507.834 314.126, 510.542 287.736 C 510.924 284.016, 511.633 280.727, 512.118 280.427 C 512.603 280.127, 513 268.632, 513 254.882 C 513 240.640, 512.619 230.117, 512.115 230.429 C 511.629 230.730, 510.919 227.944, 510.539 224.238 C 509.462 213.742, 505.269 194.006, 501.389 181.175 C 485.223 127.712, 449.870 78.809, 404.051 46.533 C 369.883 22.465, 331.400 7.463, 288.576 1.517 C 273.044 -0.640, 235.377 -0.378, 220 1.994 M 331.105 141.546 C 327.587 142.309, 321.862 143.881, 318.381 145.040 C 304.212 149.755, 291.005 151.040, 251 151.597 C 223.779 151.975, 211.341 152.529, 205.624 153.615 C 187.049 157.145, 171.671 165.915, 165.497 176.500 C 162.198 182.156, 161.207 186.653, 159.490 203.778 C 158.609 212.558, 156.993 222.113, 155.616 226.673 C 151.191 241.333, 141.842 267.491, 139.898 270.651 C 136.168 276.714, 132.103 276.526, 125.813 270 C 120.606 264.598, 119.863 264.255, 118.061 266.427 C 117.135 267.542, 116.223 267.625, 113.874 266.806 C 110.417 265.601, 104.545 266.306, 102.248 268.202 C 96.782 272.712, 94.852 289.456, 98.409 301.500 C 105.179 324.418, 116.160 341.604, 126.577 345.583 C 130.563 347.105, 131.026 347.082, 135.392 345.151 L 140 343.112 140 337.303 C 140 334.108, 139.149 328.518, 138.109 324.880 C 134.871 313.557, 137.410 314.033, 143.774 325.942 C 148.067 333.974, 152.838 340.483, 155.180 341.500 C 159.192 343.242, 170.515 359.557, 177.944 374.300 C 189.262 396.760, 194.391 402.903, 207.500 409.705 C 219.534 415.948, 246.062 423.765, 264.500 426.500 C 276.999 428.354, 282.192 428.084, 304.500 424.415 C 338.725 418.788, 342.406 417.311, 359.593 402.322 C 377.302 386.877, 383.418 373.102, 389.928 334 C 391.877 322.290, 393.669 302, 392.753 302 C 392.476 302, 389.692 303.131, 386.566 304.513 C 373.686 310.209, 358.381 310.188, 346.681 304.458 C 335.981 299.217, 323.220 282.147, 321.481 270.750 C 320.807 266.331, 319.496 265.887, 318.527 269.749 L 317.837 272.498 316.454 269.999 C 314.603 266.654, 314.639 257.799, 316.523 253.291 C 318.271 249.107, 317.930 248.672, 311.500 246.893 C 306.555 245.524, 298.767 246.367, 291.612 249.044 C 284.113 251.850, 283.507 252.778, 285.031 259.130 C 286.722 266.180, 285.740 282.846, 283.211 290.022 C 276.598 308.783, 266.211 318.514, 247.837 323.160 C 222.590 329.545, 199.306 317.826, 190.894 294.500 C 189.395 290.346, 188.515 284.830, 188.032 276.571 C 187.340 264.746, 187.306 264.619, 184.167 261.998 C 181.908 260.113, 181 258.498, 181 256.368 C 181 252.386, 182.688 250.470, 187.500 248.990 C 189.700 248.314, 196.256 245.831, 202.068 243.474 C 216.621 237.572, 229.806 234.776, 243.500 234.690 C 259.127 234.592, 268.800 237.374, 276.579 244.203 C 279.984 247.193, 280.360 247.296, 283.342 246.049 C 296.010 240.754, 300.421 239.762, 309 240.279 C 313.675 240.560, 318.232 241.089, 319.126 241.455 C 320.264 241.920, 322.165 240.625, 325.472 237.133 C 333.808 228.328, 346.458 222.993, 364.731 220.578 C 374.223 219.323, 374.415 219.247, 371.500 217.901 C 369.581 217.015, 364.896 216.513, 358.500 216.508 C 348.984 216.500, 348.221 216.661, 342.744 219.827 C 334.815 224.410, 328.831 224.667, 325.311 220.575 C 323.320 218.260, 322.911 216.938, 323.349 214.236 C 324.142 209.350, 325.059 208.596, 335.303 204.405 C 343.375 201.103, 345.549 200.634, 353.076 200.571 C 360.930 200.506, 362.059 200.753, 366.479 203.500 C 372.749 207.397, 377.333 213.095, 377.333 216.990 C 377.333 219.628, 377.683 220, 380.167 220 C 381.725 220, 382.994 219.662, 382.987 219.250 C 382.980 218.838, 382.331 211.075, 381.545 202 C 379.321 176.328, 374.439 160.038, 367.126 153.895 C 362.836 150.291, 342.105 139.965, 339.389 140.079 C 338.350 140.123, 334.622 140.783, 331.105 141.546 M 227 214.035 C 214.106 216.325, 197.312 226.124, 192.595 234.109 C 191.215 236.445, 191.089 237.402, 192.015 238.518 C 193.036 239.749, 193.699 239.726, 196.849 238.350 C 204.453 235.031, 215.761 231.837, 224.612 230.508 C 232.492 229.325, 234.754 229.333, 240.643 230.565 C 252.467 233.039, 258.954 232.252, 263.750 227.759 C 266.924 224.786, 266.877 218.621, 263.665 216.516 C 259.188 213.583, 237.723 212.130, 227 214.035 M 356.500 228.657 C 343.689 231.390, 333.271 237.708, 329.478 245.043 L 328.014 247.873 334.757 245.527 C 347.449 241.110, 355.206 241.266, 365.589 246.147 C 371.509 248.930, 380 257.003, 380 259.850 C 380 262.869, 378.512 262.560, 371.570 258.103 C 368.231 255.959, 364.562 253.927, 363.414 253.587 C 361.403 252.991, 361.344 253.244, 361.750 260.735 C 362.061 266.462, 361.795 269, 360.735 270.406 C 359.410 272.164, 359.246 271.915, 358.621 267.197 C 357.945 262.101, 356 258.980, 356 262.991 C 356 265.809, 353.753 269.974, 350.689 272.836 C 348.862 274.543, 346.591 275.317, 342.269 275.709 C 336.722 276.212, 336.129 276.052, 332.830 273.155 L 329.310 270.065 330.581 274.965 C 333.340 285.602, 343.720 297.343, 353.329 300.696 C 356.900 301.942, 361.286 302.483, 367.500 302.447 C 377.715 302.386, 384.558 299.961, 391.355 293.994 C 395.231 290.590, 399.833 283, 398.020 283 C 397.372 283, 397 277.551, 397 268.059 C 397 259.841, 396.591 252.865, 396.091 252.556 C 394.915 251.830, 390 257.656, 390 259.777 C 390 260.815, 389.654 261.054, 389.039 260.439 C 387.759 259.159, 385.168 238.808, 385.582 233.283 C 385.873 229.394, 385.633 228.811, 383.389 227.958 C 379.680 226.548, 364.541 226.941, 356.500 228.657 M 0.435 256 C 0.435 270.025, 0.575 275.762, 0.747 268.750 C 0.919 261.738, 0.919 250.262, 0.747 243.250 C 0.575 236.238, 0.435 241.975, 0.435 256 M 390.503 237.989 C 390.142 239.632, 389.431 241.234, 388.923 241.548 C 387.781 242.253, 387.726 252.020, 388.854 253.798 C 389.420 254.690, 390.668 253.086, 392.839 248.676 C 396.446 241.348, 396.594 240.293, 394.443 237.223 C 392.341 234.221, 391.285 234.426, 390.503 237.989 M 231.500 241.631 C 224.044 242.774, 211.315 246.411, 207.590 248.462 C 202.061 251.507, 197.463 258.468, 196.222 265.672 C 194.452 275.944, 195.117 276.100, 207.045 268.209 C 223.626 257.242, 231.520 254, 241.644 254 C 247.426 254, 256.345 256.911, 260.445 260.135 C 264.266 263.141, 267.178 269.449, 266.762 273.820 L 266.412 277.500 264.743 273.871 C 262.247 268.443, 258.604 264.576, 254.052 262.524 C 251.812 261.514, 249.766 260.901, 249.505 261.162 C 249.244 261.423, 249.952 263.406, 251.079 265.568 C 253.688 270.576, 253.460 281.969, 250.695 284.733 C 249.042 286.386, 248.986 286.318, 249.577 283.365 C 249.963 281.436, 249.638 279.187, 248.721 277.437 L 247.243 274.616 246.538 277.825 C 246.151 279.590, 244.310 282.650, 242.448 284.624 L 239.061 288.215 231.133 287.854 C 224.981 287.575, 222.695 287.047, 220.932 285.497 C 218.958 283.761, 218.744 283.729, 219.299 285.250 C 219.815 286.666, 219.373 287, 216.981 287 C 214.231 287, 213.903 286.582, 212.263 281.001 C 211.293 277.702, 210.275 275.018, 210 275.036 C 209.725 275.054, 206.800 276.981, 203.500 279.319 C 196.397 284.351, 195.765 286.623, 199.034 295.362 C 203.879 308.310, 217.171 317.862, 231.636 318.790 C 255.885 320.347, 273.521 306.618, 278.067 282.647 C 279.934 272.802, 278.550 257.295, 275.371 252.443 C 273.394 249.426, 267.587 245.715, 261.500 243.580 C 256.531 241.837, 238.007 240.633, 231.500 241.631 M 330.567 252.926 C 328.517 255.191, 328.797 257.843, 331.250 259.388 C 334.873 261.669, 338.800 255.874, 335.954 252.445 C 334.324 250.480, 332.645 250.630, 330.567 252.926 M 221.752 266.841 C 218.498 268.805, 218.247 270.527, 221 272 C 224.033 273.623, 227 271.628, 227 267.965 C 227 264.621, 225.841 264.373, 221.752 266.841 M 103.667 279.667 C 101.968 281.365, 103.520 283.026, 109.976 286.418 C 114.488 288.789, 118.420 291.826, 121.111 295.017 C 123.399 297.730, 125.656 299.712, 126.127 299.422 C 127.251 298.727, 124.601 292.476, 121.406 288.288 C 117.141 282.697, 106.035 277.299, 103.667 279.667 M 325 324.272 C 322.562 329.520, 316.042 332.500, 307 332.500 C 301.017 332.500, 298.730 332.045, 295.693 330.250 C 290.914 327.426, 290 327.430, 290 330.277 C 290 338.420, 302.542 342.404, 315.791 338.469 C 322.180 336.572, 326.017 332.031, 326.754 325.494 C 327.032 323.022, 327.089 321.010, 326.880 321.022 C 326.671 321.034, 325.825 322.496, 325 324.272 M 340 347.015 C 332.582 351.109, 317.871 355.027, 302.204 357.079 C 286.786 359.100, 280.868 359.139, 262.110 357.347 C 252.726 356.451, 255.150 358.378, 266.230 360.622 C 279.361 363.282, 309.807 363.277, 318.500 360.613 C 326.890 358.042, 337.075 352.549, 341.041 348.458 C 344.884 344.493, 344.795 344.369, 340 347.015" stroke="none" fill="#5b524e" fill-rule="evenodd"/></svg>