<?xml version="1.0" standalone="no"?>
<!DOCTYPE svg PUBLIC "-//W3C//DTD SVG 20010904//EN"
 "http://www.w3.org/TR/2001/REC-SVG-20010904/DTD/svg10.dtd">
<svg version="1.0" xmlns="http://www.w3.org/2000/svg"
 width="1605.000000pt" height="1605.000000pt" viewBox="0 0 1605.000000 1605.000000"
 preserveAspectRatio="xMidYMid meet">
<metadata>
Created by potrace 1.14, written by Peter Selinger 2001-2017
</metadata>
<g transform="translate(0.000000,1605.000000) scale(0.100000,-0.100000)"
fill="#000000" stroke="none">
<path d="M7678 16045 c-2 -1 -61 -6 -133 -9 -71 -4 -143 -9 -160 -11 -16 -2
-66 -7 -109 -11 -43 -3 -86 -7 -95 -9 -9 -1 -47 -6 -86 -9 -60 -6 -149 -18
-305 -41 -19 -3 -73 -12 -120 -20 -81 -14 -103 -18 -160 -30 -14 -2 -36 -7
-50 -9 -198 -34 -620 -144 -895 -233 -118 -38 -377 -128 -410 -143 -11 -5 -56
-23 -100 -41 -44 -17 -93 -36 -110 -44 -16 -7 -64 -27 -105 -45 -307 -131
-685 -326 -965 -498 -55 -33 -125 -76 -155 -93 -30 -18 -57 -35 -60 -38 -3 -3
-58 -42 -124 -86 -65 -44 -128 -87 -140 -95 -147 -100 -394 -293 -596 -465
-268 -228 -600 -556 -800 -789 -23 -27 -47 -54 -53 -61 -7 -6 -27 -30 -45 -53
-19 -23 -43 -51 -54 -64 -11 -13 -32 -38 -46 -57 -27 -34 -82 -101 -92 -111
-3 -3 -9 -12 -15 -21 -5 -9 -45 -63 -88 -120 -44 -57 -86 -115 -95 -128 -10
-13 -26 -35 -38 -50 -19 -24 -179 -265 -266 -401 -58 -91 -216 -367 -280 -490
-33 -63 -65 -121 -72 -129 -6 -8 -10 -16 -9 -17 1 -2 -24 -59 -56 -126 -329
-694 -566 -1438 -677 -2128 -7 -44 -14 -84 -18 -105 -2 -11 -7 -42 -10 -70 -4
-27 -9 -61 -11 -75 -2 -14 -6 -47 -10 -75 -3 -27 -8 -68 -11 -90 -6 -48 -10
-95 -19 -195 -4 -41 -8 -88 -10 -105 -20 -172 -27 -842 -12 -1080 11 -169 16
-242 22 -300 17 -161 26 -240 29 -263 3 -15 8 -52 12 -82 10 -79 10 -79 39
-255 14 -88 30 -176 35 -195 5 -19 12 -51 15 -70 9 -61 56 -260 92 -395 19
-71 44 -164 55 -205 33 -126 172 -536 240 -710 119 -301 271 -627 418 -899
181 -334 443 -740 670 -1038 66 -86 304 -379 319 -393 3 -3 38 -41 76 -85 170
-193 426 -450 644 -645 46 -41 89 -79 95 -85 6 -5 34 -28 61 -50 28 -22 55
-45 60 -51 30 -33 350 -279 495 -380 47 -32 90 -62 95 -67 10 -8 143 -94 290
-189 92 -59 312 -188 320 -188 4 0 19 -9 35 -20 47 -34 467 -244 635 -318 565
-248 1184 -443 1745 -547 41 -8 86 -16 100 -19 65 -13 210 -36 255 -41 28 -3
57 -8 65 -10 8 -2 40 -7 70 -10 30 -3 72 -8 93 -10 97 -12 117 -14 182 -20
264 -24 405 -30 735 -30 300 0 581 9 650 19 14 3 66 8 115 12 50 4 97 8 105 9
8 1 47 6 85 10 39 4 77 9 86 10 9 2 40 6 69 10 29 4 62 9 74 11 12 2 41 6 66
9 25 4 79 12 120 20 41 8 91 17 110 20 152 24 455 95 695 162 718 200 1480
535 2063 905 15 10 34 21 42 25 68 31 694 477 756 537 6 6 26 22 44 36 18 14
38 30 44 35 6 6 43 37 81 69 194 162 465 420 655 623 103 110 214 235 278 312
21 24 42 49 47 55 6 6 38 45 70 86 33 41 62 77 66 80 3 3 59 77 125 165 344
462 656 992 884 1500 62 140 186 438 200 485 5 14 22 63 40 110 102 278 258
827 295 1038 3 18 12 65 21 105 9 39 18 86 20 102 3 17 9 50 14 75 5 25 14 80
20 123 7 43 13 88 15 100 2 12 6 43 9 68 4 25 9 57 11 70 2 13 6 51 10 84 9
91 16 157 20 184 20 123 29 1209 12 1386 -4 44 -10 98 -12 120 -2 22 -7 67
-10 100 -4 33 -8 74 -10 90 -2 17 -7 53 -10 80 -3 28 -13 93 -21 145 -8 52
-17 111 -19 130 -3 19 -15 82 -25 140 -11 58 -22 116 -24 130 -64 351 -218
890 -353 1240 -115 298 -222 547 -314 730 -26 52 -47 97 -46 100 1 3 -7 19
-19 35 -11 17 -39 66 -61 110 -58 115 -183 330 -274 473 -44 68 -79 128 -79
132 0 5 -3 10 -7 12 -5 2 -38 48 -75 103 -56 85 -148 216 -175 250 -4 6 -35
46 -68 90 -55 74 -166 215 -190 241 -5 7 -26 31 -45 55 -219 271 -601 662
-895 915 -44 38 -91 79 -105 91 -23 20 -157 130 -190 156 -283 227 -726 521
-1085 721 -111 62 -474 244 -590 296 -244 109 -693 284 -785 305 -8 2 -35 11
-60 20 -74 27 -463 137 -530 150 -8 2 -35 8 -60 15 -55 15 -32 10 -300 63
-124 25 -247 49 -275 53 -27 4 -52 8 -55 9 -8 2 -124 18 -140 20 -8 1 -37 4
-65 8 -27 4 -70 9 -95 12 -25 3 -64 7 -87 10 -98 11 -133 14 -228 21 -55 4
-118 9 -140 11 -46 4 -822 12 -827 8z"/>
</g>
</svg>
